<svg xmlns="http://www.w3.org/2000/svg" xmlns:xlink="http://www.w3.org/1999/xlink" width="173.709" height="46.705" viewBox="0 0 173.709 46.705"><defs><radialGradient id="a" cx="0.5" cy="0.5" r="0.5" gradientUnits="objectBoundingBox"><stop offset="0" stop-color="#fff"/><stop offset="1" stop-color="#f9d4e4"/></radialGradient><clipPath id="b"><path d="M22.454,0A22.454,22.454,0,1,1,0,22.454,22.454,22.454,0,0,1,22.454,0Z" transform="translate(0 0)" fill="url(#a)"/></clipPath><linearGradient id="d" x1="0.5" x2="0.5" y2="1" gradientUnits="objectBoundingBox"><stop offset="0" stop-color="#9a0042"/><stop offset="1" stop-color="#3a041b"/></linearGradient><radialGradient id="e" cx="0.5" cy="0.5" r="0.518" gradientTransform="translate(0 0.022) scale(1 0.956)" gradientUnits="objectBoundingBox"><stop offset="0" stop-color="#59b0e2"/><stop offset="0.489" stop-color="#539fdf"/><stop offset="1" stop-color="#4677ba"/></radialGradient><radialGradient id="f" cx="0.536" cy="0.697" r="1.133" gradientTransform="translate(0 0.342) scale(1 0.317)" gradientUnits="objectBoundingBox"><stop offset="0" stop-color="#59b0e2"/><stop offset="0.492" stop-color="#539fdf"/><stop offset="1" stop-color="#4677ba"/></radialGradient><linearGradient id="g" x1="0.615" y1="2.805" x2="0.455" y2="-0.199" gradientTransform="matrix(1, 0, 0, 1, 0, 0)" xlink:href="#f"/><radialGradient id="h" cx="0.5" cy="0.5" r="0.5" gradientUnits="objectBoundingBox"><stop offset="0" stop-color="#ff66a9"/><stop offset="1" stop-color="#da3e82"/></radialGradient><linearGradient id="i" x1="1" x2="-0.005" gradientUnits="objectBoundingBox"><stop offset="0" stop-color="#ff569f"/><stop offset="0.492" stop-color="#ff90c0"/><stop offset="1" stop-color="#ff569f"/></linearGradient></defs><g transform="translate(-20.5 -14.897)"><g transform="translate(17455.227 744.916)"><g transform="translate(-17377.43 -714.463)" style="isolation:isolate"><path d="M1170.638,330.536l1.989,1.036v10.775h-1.989Z" transform="translate(-1170.637 -327.899)" fill="#3faae3"/><path d="M1170.638,330.536h1.989v2.349l-1.989-.968Z" transform="translate(-1170.638 -330.536)" fill="#3faae3"/></g><g transform="translate(-17372.484 -714.599)" style="isolation:isolate"><path d="M1176.741,335.339h1.692v1.5a4.745,4.745,0,0,1,1.593-1.335,4.243,4.243,0,0,1,1.871-.406,3.083,3.083,0,0,1,3.047,1.573,5.588,5.588,0,0,1,.435,2.463v6.8h-1.811v-6.679a3.626,3.626,0,0,0-.286-1.563,1.739,1.739,0,0,0-1.722-.99,3.532,3.532,0,0,0-1.04.128,2.673,2.673,0,0,0-1.286.871,2.607,2.607,0,0,0-.578,1.083,7.227,7.227,0,0,0-.135,1.6v5.55h-1.781Z" transform="translate(-1176.741 -331.352)" fill="#e3378c"/><path d="M1196.291,334.789a4.752,4.752,0,0,1,1.074,1.039v-5.353h1.713v14.584h-1.6v-1.474a3.859,3.859,0,0,1-1.469,1.415,4.2,4.2,0,0,1-1.942.435,3.927,3.927,0,0,1-3.055-1.489,5.836,5.836,0,0,1-1.291-3.963,6.857,6.857,0,0,1,1.178-4.012,3.85,3.85,0,0,1,3.365-1.7A3.746,3.746,0,0,1,1196.291,334.789Zm-3.975,7.945a2.513,2.513,0,0,0,2.3,1.148,2.424,2.424,0,0,0,2.023-1.063,5.046,5.046,0,0,0,.792-3.052,4.531,4.531,0,0,0-.817-2.973,2.545,2.545,0,0,0-2.018-.965,2.658,2.658,0,0,0-2.171,1.029,4.725,4.725,0,0,0-.832,3.027A5.266,5.266,0,0,0,1192.317,342.733Z" transform="translate(-1179.2 -330.475)" fill="#e3378c"/><path d="M1204.549,330.536h1.811v2.018h-1.811Zm0,3.987h1.811V345.07h-1.811Z" transform="translate(-1182.01 -330.487)" fill="#e3378c"/><path d="M1215.667,339.518a.968.968,0,0,0,.821-.514,1.572,1.572,0,0,0,.119-.686,1.456,1.456,0,0,0-.647-1.326,3.464,3.464,0,0,0-1.851-.411,2.346,2.346,0,0,0-1.975.755,2.5,2.5,0,0,0-.424,1.243h-1.663a3.071,3.071,0,0,1,1.269-2.733,5.2,5.2,0,0,1,2.831-.768,5.752,5.752,0,0,1,3.034.712,2.415,2.415,0,0,1,1.157,2.216v6.106a.777.777,0,0,0,.114.444.548.548,0,0,0,.48.169,2.525,2.525,0,0,0,.267-.015c.1-.01.2-.024.316-.045v1.315a4.87,4.87,0,0,1-.633.149,4.683,4.683,0,0,1-.593.03,1.467,1.467,0,0,1-1.336-.653,2.526,2.526,0,0,1-.307-.98,4.533,4.533,0,0,1-1.563,1.238,4.848,4.848,0,0,1-2.246.524,3.346,3.346,0,0,1-2.41-.894,2.973,2.973,0,0,1-.935-2.239,2.877,2.877,0,0,1,.92-2.282,4.383,4.383,0,0,1,2.413-1Zm-3.75,4.81a2.093,2.093,0,0,0,1.336.445,4.077,4.077,0,0,0,1.82-.435,2.445,2.445,0,0,0,1.484-2.36v-1.433a3.02,3.02,0,0,1-.84.348,7.026,7.026,0,0,1-1.007.2l-1.077.139a4.129,4.129,0,0,0-1.455.405,1.573,1.573,0,0,0-.827,1.48A1.462,1.462,0,0,0,1211.917,344.328Z" transform="translate(-1182.947 -331.347)" fill="#e3378c"/></g><g transform="translate(-17334.5 -714.916)" style="isolation:isolate"><path d="M1225.454,340.3a4.068,4.068,0,0,0,.563,2.008,3.667,3.667,0,0,0,3.326,1.445,5.694,5.694,0,0,0,1.944-.316,2.229,2.229,0,0,0,1.7-2.2,1.921,1.921,0,0,0-.719-1.692,7.128,7.128,0,0,0-2.281-.861l-1.908-.445a8.469,8.469,0,0,1-2.646-.96,3.069,3.069,0,0,1-1.342-2.72,4.246,4.246,0,0,1,1.32-3.216,5.2,5.2,0,0,1,3.735-1.256,6.367,6.367,0,0,1,3.78,1.1,4.027,4.027,0,0,1,1.554,3.527h-1.85a3.749,3.749,0,0,0-.607-1.791,3.451,3.451,0,0,0-2.931-1.137,3.3,3.3,0,0,0-2.4.732,2.338,2.338,0,0,0-.729,1.7,1.671,1.671,0,0,0,.863,1.563,12.35,12.35,0,0,0,2.56.792l1.975.464a5.942,5.942,0,0,1,2.205.921,3.487,3.487,0,0,1,1.342,2.958,3.721,3.721,0,0,1-1.713,3.454,7.529,7.529,0,0,1-3.98,1.039,5.858,5.858,0,0,1-4.139-1.385,4.732,4.732,0,0,1-1.467-3.73Z" transform="translate(-1223.603 -330.084)" fill="#3faae3"/></g><g transform="translate(-17320.656 -714.599)" style="isolation:isolate"><path d="M1240.682,330.475h1.781V335.9a5.138,5.138,0,0,1,1.138-1.128,3.844,3.844,0,0,1,2.147-.563,3.176,3.176,0,0,1,3.126,1.612,5.5,5.5,0,0,1,.446,2.444v6.8h-1.831V338.38a3.739,3.739,0,0,0-.3-1.712,1.9,1.9,0,0,0-1.82-.87,3.034,3.034,0,0,0-2.009.761,3.665,3.665,0,0,0-.9,2.88v5.62h-1.781Z" transform="translate(-1240.682 -330.475)" fill="#e3378c"/><path d="M1262.1,336.38a5.348,5.348,0,0,1,1.4,4.013,6.921,6.921,0,0,1-1.238,4.231,4.469,4.469,0,0,1-3.842,1.671,4.322,4.322,0,0,1-3.448-1.478,5.857,5.857,0,0,1-1.278-3.968,6.344,6.344,0,0,1,1.346-4.251,4.5,4.5,0,0,1,3.615-1.581A4.753,4.753,0,0,1,1262.1,336.38Zm-1.106,7.043a6.73,6.73,0,0,0,.651-2.979,5.346,5.346,0,0,0-.47-2.412,2.636,2.636,0,0,0-2.563-1.461,2.52,2.52,0,0,0-2.348,1.245,5.82,5.82,0,0,0-.734,3,5.059,5.059,0,0,0,.734,2.816,2.575,2.575,0,0,0,2.328,1.128A2.425,2.425,0,0,0,1260.989,343.423Z" transform="translate(-1243.147 -331.335)" fill="#e3378c"/><path d="M1268.307,335.383h1.741v1.4a4.34,4.34,0,0,1,1.171-1.117,3.772,3.772,0,0,1,2.123-.594,4,4,0,0,1,3.066,1.38,5.648,5.648,0,0,1,1.26,3.943q0,3.463-1.818,4.947a4.11,4.11,0,0,1-2.681.94,3.659,3.659,0,0,1-2.017-.524,4.63,4.63,0,0,1-1.062-1.02v5.413h-1.781Zm6.7,8.306a4.951,4.951,0,0,0,.829-3.121,5.814,5.814,0,0,0-.367-2.177,2.695,2.695,0,0,0-5.083.1,7.317,7.317,0,0,0-.367,2.513,5.311,5.311,0,0,0,.367,2.087,2.7,2.7,0,0,0,4.621.6Z" transform="translate(-1245.916 -331.347)" fill="#e3378c"/><path d="M1282.21,335.383h1.741v1.4a4.328,4.328,0,0,1,1.171-1.117,3.77,3.77,0,0,1,2.123-.594,4,4,0,0,1,3.065,1.38,5.647,5.647,0,0,1,1.26,3.943q0,3.463-1.818,4.947a4.116,4.116,0,0,1-2.683.94,3.658,3.658,0,0,1-2.016-.524,4.648,4.648,0,0,1-1.064-1.02v5.413h-1.781Zm6.7,8.306a4.952,4.952,0,0,0,.829-3.121,5.809,5.809,0,0,0-.367-2.177,2.695,2.695,0,0,0-5.084.1,7.317,7.317,0,0,0-.367,2.513,5.311,5.311,0,0,0,.367,2.087,2.7,2.7,0,0,0,4.622.6Z" transform="translate(-1248.551 -331.347)" fill="#e3378c"/><path d="M1302.7,335.63a4.015,4.015,0,0,1,1.6,1.37,4.755,4.755,0,0,1,.708,1.871,12.33,12.33,0,0,1,.157,2.335h-7.708a4.585,4.585,0,0,0,.756,2.594,2.521,2.521,0,0,0,2.189.978,2.816,2.816,0,0,0,2.209-.925,3.156,3.156,0,0,0,.653-1.243h1.751a3.678,3.678,0,0,1-.46,1.3,4.649,4.649,0,0,1-.872,1.172,4.1,4.1,0,0,1-1.993,1.068,6.021,6.021,0,0,1-1.444.159,4.419,4.419,0,0,1-3.333-1.44,5.621,5.621,0,0,1-1.366-4.032,6.112,6.112,0,0,1,1.376-4.146,4.529,4.529,0,0,1,3.6-1.593A4.782,4.782,0,0,1,1302.7,335.63Zm.638,4.161a4.661,4.661,0,0,0-.5-1.851,2.561,2.561,0,0,0-2.423-1.285,2.678,2.678,0,0,0-2.041.885,3.359,3.359,0,0,0-.873,2.252Z" transform="translate(-1251.079 -331.352)" fill="#e3378c"/></g><g transform="translate(-17265.074 -713.899)"><path d="M1312.508,332.149a1.726,1.726,0,0,0-2.5,2.374l.065.067a1.726,1.726,0,0,0,2.505-2.373c-.022-.024-.044-.046-.066-.068m-1.219-.81a2.029,2.029,0,0,1,1.51,3.384c-.025.027-.05.053-.076.079a2.029,2.029,0,0,1-2.942-2.793l.074-.076a2.023,2.023,0,0,1,1.434-.591Z" transform="translate(-1309.26 -331.339)" fill="#2a2828"/><path d="M1311.107,333.446h.324a1.686,1.686,0,0,0,.389-.026.239.239,0,0,0,.123-.087.261.261,0,0,0,.044-.155.237.237,0,0,0-.058-.169.264.264,0,0,0-.162-.081c-.036,0-.142-.008-.317-.008h-.338Zm-.436,1.191v-2.066h.913a1.63,1.63,0,0,1,.5.057.482.482,0,0,1,.25.2.57.57,0,0,1,.095.324.536.536,0,0,1-.142.384.692.692,0,0,1-.423.191.961.961,0,0,1,.231.173,2.312,2.312,0,0,1,.243.336l.263.405h-.519l-.31-.451a2.791,2.791,0,0,0-.23-.3.333.333,0,0,0-.13-.086.743.743,0,0,0-.22-.024h-.087v.863Z" transform="translate(-1309.528 -331.572)" fill="#2a2828" fill-rule="evenodd"/></g><g transform="translate(-17334.668 -690.233)" opacity="0"><path d="M935.668,431.653l.052,2.853-.028.794.316-.777,1.193-2.87h1.118l-.018,2.853-.017.794.32-.764,1.3-2.883h1.076l-2.5,4.983H937.47l.018-2.914.027-.963-.385.963-1.241,2.914H934.9l-.361-4.983Z" transform="translate(-934.544 -431.508)" fill="#464545"/><path d="M948.519,433.349a.793.793,0,0,1,.1.424,5.247,5.247,0,0,1-.118.712l-.468,2.163h-1l.481-2.241a.9.9,0,0,0,0-.48c-.053-.171-.2-.257-.454-.257a.876.876,0,0,0-.645.256,1.43,1.43,0,0,0-.359.728l-.43,1.994h-.976l1.073-4.965h.977l-.382,1.761a1.546,1.546,0,0,1,1.207-.575,1.434,1.434,0,0,1,.6.119A.811.811,0,0,1,948.519,433.349Z" transform="translate(-938.721 -431.521)" fill="#464545"/><path d="M955.584,434.415a1.533,1.533,0,0,1,.121.76,4.687,4.687,0,0,1-.124.73h-2.565a.751.751,0,0,0,.185.777.708.708,0,0,0,.457.138.863.863,0,0,0,.53-.169,1.187,1.187,0,0,0,.237-.253h1a1.62,1.62,0,0,1-.492.666,2.112,2.112,0,0,1-1.465.537,1.374,1.374,0,0,1-1.392-1.927,2.551,2.551,0,0,1,.81-1.467,2.089,2.089,0,0,1,1.39-.51,1.765,1.765,0,0,1,.806.172A1.06,1.06,0,0,1,955.584,434.415Zm-2.406.855H954.7a.693.693,0,0,0-.112-.579.6.6,0,0,0-.483-.2.824.824,0,0,0-.573.209A1.338,1.338,0,0,0,953.177,435.27Z" transform="translate(-941.76 -432.353)" fill="#464545"/><path d="M961.614,433.723l-.214.986c-.059-.007-.113-.011-.161-.013l-.117,0a1.028,1.028,0,0,0-.877.378,1.753,1.753,0,0,0-.255.657l-.378,1.761h-.987l.794-3.685h.935l-.137.642a2.887,2.887,0,0,1,.5-.5,1.315,1.315,0,0,1,.767-.226l.046,0Z" transform="translate(-944.496 -432.361)" fill="#464545"/><path d="M966.927,434.415a1.531,1.531,0,0,1,.12.76,4.614,4.614,0,0,1-.124.73h-2.565a.751.751,0,0,0,.186.777.708.708,0,0,0,.457.138.86.86,0,0,0,.529-.169,1.173,1.173,0,0,0,.238-.253h1a1.622,1.622,0,0,1-.492.666,2.112,2.112,0,0,1-1.465.537,1.373,1.373,0,0,1-1.392-1.927,2.553,2.553,0,0,1,.81-1.467,2.089,2.089,0,0,1,1.391-.51,1.765,1.765,0,0,1,.806.172A1.062,1.062,0,0,1,966.927,434.415Zm-2.406.855h1.523a.694.694,0,0,0-.112-.579.6.6,0,0,0-.483-.2.823.823,0,0,0-.573.209A1.325,1.325,0,0,0,964.521,435.27Z" transform="translate(-946.448 -432.353)" fill="#464545"/><path d="M974.367,436.636h-1.052l1.076-4.983h1.052Z" transform="translate(-950.567 -431.508)" fill="#4677ba"/><path d="M980.593,435.007l-.536,2.481h-1l.482-2.241a.915.915,0,0,0,.017-.446q-.083-.283-.488-.283a.875.875,0,0,0-.773.416,1.641,1.641,0,0,0-.217.561l-.43,1.994h-.976l.794-3.678h.945l-.117.537a2.289,2.289,0,0,1,.447-.409,1.49,1.49,0,0,1,.815-.223,1.212,1.212,0,0,1,.885.3A1.035,1.035,0,0,1,980.593,435.007Z" transform="translate(-951.952 -432.361)" fill="#464545"/><path d="M987.149,433.422l.378-1.757h.993l-1.073,4.975H986.5l.11-.511a1.888,1.888,0,0,1-.583.477,1.559,1.559,0,0,1-.7.149,1.1,1.1,0,0,1-.992-.523,1.736,1.736,0,0,1-.16-1.34,2.849,2.849,0,0,1,.765-1.483,1.807,1.807,0,0,1,1.3-.541,1.05,1.05,0,0,1,.573.147A.871.871,0,0,1,987.149,433.422Zm-.282,1.431a1.035,1.035,0,0,0-.138-.967.616.616,0,0,0-.457-.176.874.874,0,0,0-.7.319,1.8,1.8,0,0,0-.373.793,1.325,1.325,0,0,0,.028.817.545.545,0,0,0,.553.306.917.917,0,0,0,.7-.3A1.623,1.623,0,0,0,986.867,434.853Z" transform="translate(-955.029 -431.513)" fill="#464545"/><path d="M992.133,432.93h.994l-.795,3.685h-.993Zm1.09-.439h-.994l.193-.889h.993Z" transform="translate(-958.016 -431.487)" fill="#464545"/><path d="M996.547,435.247a1.787,1.787,0,0,0,.409-.084.39.39,0,0,0,.268-.274q.048-.227-.093-.313a.9.9,0,0,0-.451-.086.752.752,0,0,0-.529.169.941.941,0,0,0-.21.338H995a1.794,1.794,0,0,1,.447-.794,1.971,1.971,0,0,1,1.44-.486,2.1,2.1,0,0,1,1.041.24q.427.239.282.906l-.368,1.69c-.025.117-.053.259-.083.425a.5.5,0,0,0,0,.258.25.25,0,0,0,.119.111l-.028.143h-1.065a.939.939,0,0,1-.017-.21,2.033,2.033,0,0,1,.02-.223,2.778,2.778,0,0,1-.547.368,1.67,1.67,0,0,1-.756.18,1.021,1.021,0,0,1-.779-.286.852.852,0,0,1-.157-.81,1.374,1.374,0,0,1,.746-.983,2.788,2.788,0,0,1,.911-.236Zm.5.45a1.276,1.276,0,0,1-.206.093,1.89,1.89,0,0,1-.275.066l-.227.041a1.694,1.694,0,0,0-.474.131.574.574,0,0,0-.313.409.361.361,0,0,0,.06.357.436.436,0,0,0,.314.11,1.206,1.206,0,0,0,.623-.182,1,1,0,0,0,.422-.666Z" transform="translate(-959.328 -432.361)" fill="#464545"/><path d="M1005.918,435a.883.883,0,0,0,.079.511.9.9,0,0,0,.818.307,2.065,2.065,0,0,0,.626-.082.763.763,0,0,0,.567-.578.338.338,0,0,0-.138-.381,1.9,1.9,0,0,0-.64-.233l-.512-.119a2.769,2.769,0,0,1-1.01-.381,1,1,0,0,1-.279-1.078,1.849,1.849,0,0,1,.736-1.112,2.523,2.523,0,0,1,1.551-.442,1.861,1.861,0,0,1,1.275.417,1.215,1.215,0,0,1,.33,1.212H1008.3a.562.562,0,0,0-.258-.639,1.182,1.182,0,0,0-.588-.125,1.359,1.359,0,0,0-.689.162.674.674,0,0,0-.342.453.34.34,0,0,0,.155.4,2.376,2.376,0,0,0,.615.207l.828.207a1.8,1.8,0,0,1,.787.361,1.006,1.006,0,0,1,.234,1.017,1.854,1.854,0,0,1-.777,1.134,2.678,2.678,0,0,1-1.6.451,2.065,2.065,0,0,1-1.461-.445,1.213,1.213,0,0,1-.3-1.222Z" transform="translate(-963.604 -431.406)" fill="#4677ba"/><path d="M1016.541,433.349a.8.8,0,0,1,.1.424,5.15,5.15,0,0,1-.119.712l-.467,2.163h-1l.481-2.241a.917.917,0,0,0,0-.48c-.053-.171-.2-.257-.454-.257a.876.876,0,0,0-.644.256,1.436,1.436,0,0,0-.36.728l-.429,1.994h-.976l1.073-4.965h.976l-.381,1.761a1.546,1.546,0,0,1,1.206-.575,1.435,1.435,0,0,1,.605.119A.814.814,0,0,1,1016.541,433.349Z" transform="translate(-966.832 -431.521)" fill="#464545"/><path d="M1021.72,437.595a1.411,1.411,0,0,1-1.315-.576,1.844,1.844,0,0,1-.174-1.387,2.682,2.682,0,0,1,.774-1.383,2.154,2.154,0,0,1,1.568-.584,1.4,1.4,0,0,1,1.313.584,1.855,1.855,0,0,1,.176,1.383,2.664,2.664,0,0,1-.775,1.387A2.167,2.167,0,0,1,1021.72,437.595Zm1.313-1.963a1.23,1.23,0,0,0-.046-.853.624.624,0,0,0-.6-.3.981.981,0,0,0-.725.3,1.694,1.694,0,0,0-.416.853,1.234,1.234,0,0,0,.046.855.623.623,0,0,0,.6.3.979.979,0,0,0,.725-.3A1.71,1.71,0,0,0,1023.033,435.631Z" transform="translate(-969.931 -432.339)" fill="#464545"/><path d="M1031.077,435.6a2.737,2.737,0,0,1-.765,1.483,1.808,1.808,0,0,1-1.257.51.886.886,0,0,1-.935-.574l-.416,1.92h-.97l1.111-5.135h.939l-.117.545a2.187,2.187,0,0,1,.419-.379,1.488,1.488,0,0,1,.829-.246,1.178,1.178,0,0,1,1.009.476A1.707,1.707,0,0,1,1031.077,435.6Zm-1.626-1.034a.941.941,0,0,0-.838.5,2.221,2.221,0,0,0-.248.669.9.9,0,0,0,.151.9.673.673,0,0,0,.457.151.9.9,0,0,0,.691-.311,1.747,1.747,0,0,0,.392-.828,1.3,1.3,0,0,0-.035-.753A.543.543,0,0,0,1029.451,434.569Z" transform="translate(-972.643 -432.366)" fill="#464545"/><path d="M1035.658,436.3a.536.536,0,0,0,.058.365c.092.128.3.193.63.193a1.173,1.173,0,0,0,.477-.085.362.362,0,0,0,.227-.253.219.219,0,0,0-.086-.247,4.74,4.74,0,0,0-.959-.29,1.668,1.668,0,0,1-.812-.389.7.7,0,0,1-.117-.662,1.48,1.48,0,0,1,.6-.877,1.978,1.978,0,0,1,1.226-.367,1.834,1.834,0,0,1,1.083.275.949.949,0,0,1,.3.952h-.979a.5.5,0,0,0-.045-.294.555.555,0,0,0-.509-.2.914.914,0,0,0-.476.1.372.372,0,0,0-.184.231.2.2,0,0,0,.093.239,5.326,5.326,0,0,0,.963.267,1.476,1.476,0,0,1,.787.41.773.773,0,0,1,.141.692,1.456,1.456,0,0,1-.609.895,2.311,2.311,0,0,1-1.355.346,1.64,1.64,0,0,1-1.226-.367.989.989,0,0,1-.221-.934Z" transform="translate(-975.908 -432.349)" fill="#464545"/><path d="M1041.513,438.428h1.041l-.216,1.007H1041.3Z" transform="translate(-978.661 -434.308)" fill="#464545"/><path d="M1044.847,438.428h1.042l-.217,1.007h-1.042Z" transform="translate(-980.039 -434.308)" fill="#464545"/><path d="M1048.181,438.428h1.042l-.217,1.007h-1.042Z" transform="translate(-981.417 -434.308)" fill="#464545"/></g><g transform="translate(-17335.09 -690.827)"><path d="M1042.318,588.657l-.2-5.366h.829l.07,3.141q.007.294,0,.626t-.033.626h.026q.1-.29.237-.637t.266-.626l1.438-3.131h.811l.118,3.127q.014.265.014.622t-.011.648h.026q.066-.2.145-.419t.161-.439q.083-.218.164-.409l1.333-3.131h.9l-2.4,5.366h-.951l-.118-3c0-.162-.009-.308-.013-.438s-.006-.254-.008-.369,0-.228,0-.341h-.026c-.053.174-.114.343-.18.508s-.144.347-.235.545l-1.421,3.1Z" transform="translate(-1042.12 -582.946)" fill="#585757"/><path d="M1054.245,588.3l1.211-5.711h.856l-.268,1.237c-.02.107-.046.225-.079.352s-.067.253-.1.378-.069.24-.1.345h.033a2.765,2.765,0,0,1,.332-.36,1.562,1.562,0,0,1,.418-.273,1.26,1.26,0,0,1,.52-.1,1.136,1.136,0,0,1,.565.13.856.856,0,0,1,.352.375,1.331,1.331,0,0,1,.121.6,2.163,2.163,0,0,1-.022.3c-.014.106-.034.217-.058.332l-.51,2.4h-.859l.521-2.466c.022-.1.038-.181.048-.257a1.705,1.705,0,0,0,.015-.205.543.543,0,0,0-.118-.378.469.469,0,0,0-.363-.129.827.827,0,0,0-.514.2,1.8,1.8,0,0,0-.455.579,3.507,3.507,0,0,0-.315.92l-.367,1.736Z" transform="translate(-1048.251 -582.593)" fill="#585757"/><path d="M1065.116,589.985a1.758,1.758,0,0,1-.813-.178,1.248,1.248,0,0,1-.536-.525,1.757,1.757,0,0,1-.189-.85,3.381,3.381,0,0,1,.143-.974,2.834,2.834,0,0,1,.423-.857,2.116,2.116,0,0,1,.679-.606,1.834,1.834,0,0,1,.911-.224,1.368,1.368,0,0,1,.938.281.95.95,0,0,1,.314.743,1.178,1.178,0,0,1-.144.576,1.274,1.274,0,0,1-.435.449,2.3,2.3,0,0,1-.738.292,4.729,4.729,0,0,1-1.048.1h-.165l-.007.112c0,.039,0,.076,0,.112a.914.914,0,0,0,.213.641.8.8,0,0,0,.62.233,2,2,0,0,0,.569-.078,3.971,3.971,0,0,0,.584-.231v.679a3.359,3.359,0,0,1-.6.222A2.874,2.874,0,0,1,1065.116,589.985Zm-.554-2.393h.125a3.091,3.091,0,0,0,.779-.087,1.151,1.151,0,0,0,.51-.256.554.554,0,0,0,.179-.417.382.382,0,0,0-.119-.3.51.51,0,0,0-.354-.108.842.842,0,0,0-.455.141,1.362,1.362,0,0,0-.4.4A1.926,1.926,0,0,0,1064.562,587.592Z" transform="translate(-1052.971 -584.2)" fill="#585757"/><path d="M1071.249,589.911l.862-4.063h.672l-.088.767h.04a3.07,3.07,0,0,1,.343-.426,1.524,1.524,0,0,1,.413-.3,1.119,1.119,0,0,1,.507-.114,1.666,1.666,0,0,1,.207.013,1.332,1.332,0,0,1,.189.035l-.187.808a1.546,1.546,0,0,0-.176-.037,1.334,1.334,0,0,0-.2-.015.952.952,0,0,0-.455.114,1.337,1.337,0,0,0-.385.316,2.023,2.023,0,0,0-.3.472,2.863,2.863,0,0,0-.195.585l-.389,1.85Z" transform="translate(-1056.85 -584.2)" fill="#585757"/><path d="M1079.351,589.985a1.758,1.758,0,0,1-.813-.178,1.25,1.25,0,0,1-.536-.525,1.756,1.756,0,0,1-.188-.85,3.36,3.36,0,0,1,.143-.974,2.816,2.816,0,0,1,.422-.857,2.115,2.115,0,0,1,.679-.606,1.834,1.834,0,0,1,.911-.224,1.366,1.366,0,0,1,.938.281.95.95,0,0,1,.314.743,1.178,1.178,0,0,1-.143.576,1.266,1.266,0,0,1-.435.449,2.29,2.29,0,0,1-.737.292,4.731,4.731,0,0,1-1.048.1h-.165l-.007.112c0,.039,0,.076,0,.112a.915.915,0,0,0,.213.641.8.8,0,0,0,.62.233,1.994,1.994,0,0,0,.569-.078,3.955,3.955,0,0,0,.584-.231v.679a3.347,3.347,0,0,1-.6.222A2.87,2.87,0,0,1,1079.351,589.985Zm-.554-2.393h.125a3.088,3.088,0,0,0,.778-.087,1.151,1.151,0,0,0,.51-.256.554.554,0,0,0,.18-.417.382.382,0,0,0-.119-.3.51.51,0,0,0-.354-.108.843.843,0,0,0-.455.141,1.373,1.373,0,0,0-.4.4A1.931,1.931,0,0,0,1078.8,587.592Z" transform="translate(-1060.169 -584.2)" fill="#585757"/><path d="M1089.589,588.657l1.141-5.366h.867l-1.145,5.366Z" transform="translate(-1066.124 -582.946)" fill="#427cbe"/><path d="M1093.9,589.9l.866-4.074h.694l-.089.768h.022a2.727,2.727,0,0,1,.341-.409,1.664,1.664,0,0,1,.443-.314,1.245,1.245,0,0,1,.556-.121,1.151,1.151,0,0,1,.572.132.855.855,0,0,1,.357.378,1.321,1.321,0,0,1,.121.587,2.322,2.322,0,0,1-.024.321q-.024.171-.06.332l-.51,2.4h-.877l.521-2.47q.033-.143.049-.257a1.507,1.507,0,0,0,.016-.213.5.5,0,0,0-.119-.363.478.478,0,0,0-.354-.121.811.811,0,0,0-.507.2,1.82,1.82,0,0,0-.452.576,3.564,3.564,0,0,0-.319.914l-.367,1.736Z" transform="translate(-1068.302 -584.189)" fill="#585757"/><path d="M1104.377,588.378a1.1,1.1,0,0,1-.571-.151,1.036,1.036,0,0,1-.405-.468,1.909,1.909,0,0,1-.151-.817,3.906,3.906,0,0,1,.087-.821,3.527,3.527,0,0,1,.252-.756,2.6,2.6,0,0,1,.4-.624,1.8,1.8,0,0,1,.542-.422,1.44,1.44,0,0,1,.659-.153,1.026,1.026,0,0,1,.452.092.964.964,0,0,1,.315.242,1.607,1.607,0,0,1,.217.327h.033c.008-.064.017-.145.028-.244s.025-.207.042-.323.038-.229.062-.34l.283-1.329h.855l-1.211,5.711h-.672l.081-.657h-.026a2.663,2.663,0,0,1-.35.371,1.574,1.574,0,0,1-.416.263A1.29,1.29,0,0,1,1104.377,588.378Zm.334-.7a.677.677,0,0,0,.332-.089,1.111,1.111,0,0,0,.3-.244,2.093,2.093,0,0,0,.251-.359,2.764,2.764,0,0,0,.195-.435,3.212,3.212,0,0,0,.125-.471,2.6,2.6,0,0,0,.044-.462.852.852,0,0,0-.163-.545.589.589,0,0,0-.487-.2.7.7,0,0,0-.389.118,1.261,1.261,0,0,0-.327.319,2.142,2.142,0,0,0-.251.465,2.944,2.944,0,0,0-.16.559,3.274,3.274,0,0,0-.055.595.9.9,0,0,0,.148.561A.521.521,0,0,0,1104.711,587.677Z" transform="translate(-1073.032 -582.593)" fill="#585757"/><path d="M1111.812,588.4l.862-4.063h.859l-.863,4.063Zm1.483-4.672a.529.529,0,0,1-.32-.093.341.341,0,0,1-.129-.3.632.632,0,0,1,.064-.294.455.455,0,0,1,.187-.192.6.6,0,0,1,.3-.068.511.511,0,0,1,.312.09.336.336,0,0,1,.121.288.582.582,0,0,1-.143.411A.5.5,0,0,1,1113.3,583.729Z" transform="translate(-1077.362 -582.691)" fill="#585757"/><path d="M1117.463,589.985a1.085,1.085,0,0,1-.567-.152,1.05,1.05,0,0,1-.405-.47,1.881,1.881,0,0,1-.151-.809,3.784,3.784,0,0,1,.09-.829,3.6,3.6,0,0,1,.257-.756,2.64,2.64,0,0,1,.405-.622,1.812,1.812,0,0,1,.54-.422,1.42,1.42,0,0,1,.65-.152,1.109,1.109,0,0,1,.462.09.993.993,0,0,1,.334.24,1.3,1.3,0,0,1,.22.334h.034l.22-.587h.661l-.863,4.063h-.657l.08-.657h-.03a2.536,2.536,0,0,1-.351.367,1.659,1.659,0,0,1-.423.264A1.271,1.271,0,0,1,1117.463,589.985Zm.316-.7a.766.766,0,0,0,.492-.193,1.8,1.8,0,0,0,.417-.512,2.59,2.59,0,0,0,.269-.7,2.725,2.725,0,0,0,.061-.349c.011-.111.016-.221.016-.331a.784.784,0,0,0-.169-.521.57.57,0,0,0-.462-.2.709.709,0,0,0-.384.114,1.208,1.208,0,0,0-.329.314,2.182,2.182,0,0,0-.254.46,2.781,2.781,0,0,0-.165.56,3.226,3.226,0,0,0-.057.607.9.9,0,0,0,.149.562A.5.5,0,0,0,1117.779,589.284Z" transform="translate(-1079.651 -584.2)" fill="#585757"/><path d="M1129.988,588.652a3.213,3.213,0,0,1-.721-.074,2.077,2.077,0,0,1-.563-.213v-.808a3.581,3.581,0,0,0,.6.252,2.262,2.262,0,0,0,.692.1,1.765,1.765,0,0,0,.415-.046,1.057,1.057,0,0,0,.345-.145.715.715,0,0,0,.235-.252.737.737,0,0,0,.084-.361.727.727,0,0,0-.088-.367,1.029,1.029,0,0,0-.261-.292,4.377,4.377,0,0,0-.433-.3,3.709,3.709,0,0,1-.466-.356,1.548,1.548,0,0,1-.349-.453,1.336,1.336,0,0,1-.132-.614,1.577,1.577,0,0,1,.134-.661,1.432,1.432,0,0,1,.378-.5,1.735,1.735,0,0,1,.573-.317,2.23,2.23,0,0,1,.714-.11,2.84,2.84,0,0,1,1.4.338l-.319.69a3.17,3.17,0,0,0-.52-.2,2,2,0,0,0-.56-.08,1.176,1.176,0,0,0-.354.052.838.838,0,0,0-.285.151.677.677,0,0,0-.189.244.775.775,0,0,0-.068.332.709.709,0,0,0,.085.359.909.909,0,0,0,.246.27q.162.123.393.266a3.591,3.591,0,0,1,.536.4,1.444,1.444,0,0,1,.341.459,1.4,1.4,0,0,1,.118.6,1.631,1.631,0,0,1-.149.721,1.389,1.389,0,0,1-.418.511,1.881,1.881,0,0,1-.629.3A2.891,2.891,0,0,1,1129.988,588.652Z" transform="translate(-1085.903 -582.867)" fill="#427cbe"/><path d="M1136.626,588.3l1.211-5.711h.856l-.268,1.237q-.03.161-.08.352t-.1.378c-.035.125-.069.24-.1.345h.034a2.756,2.756,0,0,1,.332-.36,1.562,1.562,0,0,1,.418-.273,1.257,1.257,0,0,1,.52-.1,1.137,1.137,0,0,1,.566.13.863.863,0,0,1,.352.375,1.333,1.333,0,0,1,.121.6,2.163,2.163,0,0,1-.022.3c-.015.106-.035.217-.058.332l-.511,2.4h-.859l.521-2.466a2.458,2.458,0,0,0,.047-.257,1.62,1.62,0,0,0,.016-.205.541.541,0,0,0-.118-.378.467.467,0,0,0-.363-.129.826.826,0,0,0-.514.2,1.8,1.8,0,0,0-.455.579,3.52,3.52,0,0,0-.316.92l-.367,1.736Z" transform="translate(-1089.91 -582.593)" fill="#585757"/><path d="M1147.482,589.988a1.645,1.645,0,0,1-.808-.191,1.324,1.324,0,0,1-.534-.541,1.726,1.726,0,0,1-.189-.831,3.626,3.626,0,0,1,.087-.792,3.057,3.057,0,0,1,.255-.72,2.228,2.228,0,0,1,.422-.585,1.851,1.851,0,0,1,.587-.393,1.905,1.905,0,0,1,.748-.141,1.643,1.643,0,0,1,.815.191,1.287,1.287,0,0,1,.525.547,1.841,1.841,0,0,1,.183.852,3.61,3.61,0,0,1-.082.774,3.066,3.066,0,0,1-.248.71,2.19,2.19,0,0,1-.416.583,1.836,1.836,0,0,1-.587.394A1.908,1.908,0,0,1,1147.482,589.988Zm.062-.7a.813.813,0,0,0,.384-.093,1.057,1.057,0,0,0,.321-.268,1.679,1.679,0,0,0,.244-.415,2.668,2.668,0,0,0,.156-.534,3.42,3.42,0,0,0,.055-.627,1.278,1.278,0,0,0-.066-.417.654.654,0,0,0-.219-.312.64.64,0,0,0-.405-.119.825.825,0,0,0-.417.108,1.128,1.128,0,0,0-.334.3,1.892,1.892,0,0,0-.244.439,2.754,2.754,0,0,0-.15.528,3.114,3.114,0,0,0-.051.567.943.943,0,0,0,.185.626A.671.671,0,0,0,1147.544,589.283Z" transform="translate(-1094.625 -584.211)" fill="#585757"/><path d="M1153.562,591.717l1.244-5.865h.672l-.081.7h.03a2.894,2.894,0,0,1,.338-.378,1.627,1.627,0,0,1,.42-.286,1.188,1.188,0,0,1,.512-.11,1.084,1.084,0,0,1,.568.153,1.06,1.06,0,0,1,.407.47,1.9,1.9,0,0,1,.153.817,3.91,3.91,0,0,1-.087.821,3.483,3.483,0,0,1-.252.754,2.631,2.631,0,0,1-.4.622,1.8,1.8,0,0,1-.538.422,1.448,1.448,0,0,1-.661.152,1.047,1.047,0,0,1-.453-.09.948.948,0,0,1-.318-.24,1.561,1.561,0,0,1-.216-.331h-.034c-.012.145-.029.3-.051.452s-.049.306-.08.447l-.316,1.49Zm2.209-2.43a.705.705,0,0,0,.389-.116,1.231,1.231,0,0,0,.327-.317,2.028,2.028,0,0,0,.25-.466,3.132,3.132,0,0,0,.158-.56,3.25,3.25,0,0,0,.055-.6.92.92,0,0,0-.145-.564.514.514,0,0,0-.435-.189.685.685,0,0,0-.338.091,1.175,1.175,0,0,0-.3.244,1.916,1.916,0,0,0-.253.358,2.684,2.684,0,0,0-.195.435,3.117,3.117,0,0,0-.123.47,2.657,2.657,0,0,0-.042.462.832.832,0,0,0,.167.543A.59.59,0,0,0,1155.771,589.287Z" transform="translate(-1098.474 -584.204)" fill="#585757"/><path d="M1164.207,589.985a3.025,3.025,0,0,1-.666-.064,2.056,2.056,0,0,1-.512-.185V589a2.575,2.575,0,0,0,.531.233,2,2,0,0,0,.607.093,1.229,1.229,0,0,0,.422-.066.643.643,0,0,0,.281-.189.457.457,0,0,0,.1-.3.439.439,0,0,0-.059-.227.7.7,0,0,0-.2-.2,4.5,4.5,0,0,0-.4-.246,2.929,2.929,0,0,1-.453-.306,1.118,1.118,0,0,1-.282-.347.967.967,0,0,1-.1-.448,1.182,1.182,0,0,1,.178-.658,1.131,1.131,0,0,1,.506-.419,1.917,1.917,0,0,1,.776-.145,2.708,2.708,0,0,1,.679.083,2.628,2.628,0,0,1,.591.229l-.283.639a2.6,2.6,0,0,0-.448-.2,1.657,1.657,0,0,0-.528-.083.745.745,0,0,0-.435.121.426.426,0,0,0-.117.556.665.665,0,0,0,.192.189,3.619,3.619,0,0,0,.371.221,3.43,3.43,0,0,1,.451.294,1.19,1.19,0,0,1,.312.354.959.959,0,0,1,.114.482,1.267,1.267,0,0,1-.2.725,1.243,1.243,0,0,1-.568.448A2.252,2.252,0,0,1,1164.207,589.985Z" transform="translate(-1103.261 -584.2)" fill="#585757"/><path d="M1170.5,593.22a.445.445,0,0,1-.355-.128.462.462,0,0,1-.112-.316.752.752,0,0,1,.149-.455.574.574,0,0,1,.494-.2.45.45,0,0,1,.325.118.442.442,0,0,1,.123.334.684.684,0,0,1-.163.457A.57.57,0,0,1,1170.5,593.22Z" transform="translate(-1106.802 -587.41)" fill="#585757"/><path d="M1174.574,593.22a.445.445,0,0,1-.354-.128.464.464,0,0,1-.112-.316.752.752,0,0,1,.149-.455.573.573,0,0,1,.494-.2.45.45,0,0,1,.325.118.442.442,0,0,1,.123.334.685.685,0,0,1-.164.457A.57.57,0,0,1,1174.574,593.22Z" transform="translate(-1108.863 -587.41)" fill="#585757"/><path d="M1178.65,593.22a.445.445,0,0,1-.354-.128.463.463,0,0,1-.112-.316.752.752,0,0,1,.148-.455.575.575,0,0,1,.494-.2.452.452,0,0,1,.325.118.442.442,0,0,1,.123.334.687.687,0,0,1-.163.457A.572.572,0,0,1,1178.65,593.22Z" transform="translate(-1110.925 -587.41)" fill="#585757"/></g></g><g transform="translate(-780.412 -88.702)"><path d="M23.353,0A23.353,23.353,0,1,1,0,23.353,23.353,23.353,0,0,1,23.353,0Z" transform="translate(800.912 103.6)" fill="#ffc5df"/><g transform="translate(801.81 104.498)" clip-path="url(#b)"><path d="M22.454,0A22.454,22.454,0,1,1,0,22.454,22.454,22.454,0,0,1,22.454,0Z" transform="translate(0 0)" fill="url(#a)"/><g transform="translate(11.347 11.782)"><g transform="translate(0.017 8.739)"><path d="M2641.582-1766.747l1.734-1.325-1.734-1.892,22.349-.026-2.072,1.918,2.072,1.3Z" transform="translate(-2641.582 1769.99)" fill="url(#d)"/></g><path d="M.012.024,22.386,0l-.66.606L.938.653Z" transform="translate(-0.006 8.739)" fill="#ff569f"/><g transform="translate(0 8.77)"><path d="M3.119,0,0,1.529,3.127,3.2Z" transform="translate(3.127 3.205) rotate(180)" fill="#a72a61"/><path d="M12.3,31.895v1.6H9.229Z" transform="translate(-9.225 -30.293)" fill="#ff569f"/></g><g transform="translate(19.468 8.74)"><path d="M1.872,4.309l-2.9-1.457,2.9-1.78Z" transform="translate(1.025 -1.072)" fill="#a72a61"/><path d="M8.356,32.188v1.437h2.8Z" transform="translate(-8.257 -30.384)" fill="#ff569f"/></g><g transform="translate(0.263 0)"><g transform="matrix(0.982, 0.191, -0.191, 0.982, 8.924, 0.071)"><path d="M2.876,9.093a2.382,2.382,0,0,0,.549,1.293,3.468,3.468,0,0,0,2.567.779A6.264,6.264,0,0,0,7.76,10.96Q9.048,10.566,9.048,9.5a1.06,1.06,0,0,0-.631-.967,7.519,7.519,0,0,0-2-.591l-1.561-.3A10.647,10.647,0,0,1,1.692,6.67,2.956,2.956,0,0,1,.235,3.938,3.445,3.445,0,0,1,1.661,1.121,6.673,6.673,0,0,1,5.849,0,7.071,7.071,0,0,1,9.785,1.057a3.62,3.62,0,0,1,1.708,3.07H8.6A1.806,1.806,0,0,0,7.435,2.509a4.472,4.472,0,0,0-1.8-.317A3.8,3.8,0,0,0,3.734,2.6,1.27,1.27,0,0,0,3.023,3.75a1.075,1.075,0,0,0,.7,1.011,9.637,9.637,0,0,0,1.915.522l2.53.522a6.938,6.938,0,0,1,2.493.916A2.939,2.939,0,0,1,11.953,9.3a3.459,3.459,0,0,1-1.528,2.873A7.088,7.088,0,0,1,6.11,13.315a7.783,7.783,0,0,1-4.479-1.126A3.562,3.562,0,0,1,0,9.093Z" transform="translate(0 0)" fill="url(#e)"/></g><g transform="translate(0 0.12) rotate(-1)"><path d="M.567,9.141,0,0,2.749.753l.769,9.29Z" transform="translate(0.753 3.406) rotate(-16)" fill="url(#f)"/><path d="M0,1.811.032,0,2.7.375l.033,2.146Z" transform="matrix(0.961, -0.276, 0.276, 0.961, 0, 0.753)" fill="url(#g)"/></g></g><g transform="translate(0 11.946)"><path d="M0,0H22.379a0,0,0,0,1,0,0V17.181a4,4,0,0,1-4,4H4a4,4,0,0,1-4-4V0A0,0,0,0,1,0,0Z" transform="translate(0)" fill="url(#h)"/><g transform="translate(0 9.727)" opacity="0.5"><path d="M532.332,459.488l-.019-.2c-.051-.594-.048-1.115-.064-1.4a1.28,1.28,0,0,0,.375.118,2.076,2.076,0,0,0,1.251-.348c.183-.105.357-.22.526-.338a1.111,1.111,0,0,0,.418-.542,1.43,1.43,0,0,0-.224-1.275,1.3,1.3,0,0,0-.276-.276,2.433,2.433,0,0,1,.019-.493c0-.026.011-.052.015-.076a1.288,1.288,0,0,1,1-1.013,1.358,1.358,0,0,1,1.339.547.964.964,0,0,1-.027,1.329.786.786,0,0,1-.643.234.55.55,0,0,1-.412-.453.584.584,0,0,1,0-.065c.024-.308.25-.567.187-.622-.033-.056-.394.1-.474.577a.82.82,0,0,0,.552.82,1.024,1.024,0,0,0,.952-.248,1.176,1.176,0,0,0,.41-.863,1.461,1.461,0,0,0-.317-.886,1.655,1.655,0,0,0-1.7-.64,1.607,1.607,0,0,0-1.176,1.355.884.884,0,0,0,.024.362c-.009,0-.019,0-.027-.006a.83.83,0,0,0-.709.119,1.5,1.5,0,0,0-.451.507.621.621,0,0,0,.078.729h0c.5.5,1.088.126.963.04-.035-.02-.112.018-.272-.012a.836.836,0,0,1-.51-.271.247.247,0,0,1-.041-.073c-.092-.237.231-.612.5-.741a.666.666,0,0,1,.809.363,1.124,1.124,0,0,1,.117.989c-.113.306-.491.479-.811.688a1.841,1.841,0,0,1-1.03.305,1.753,1.753,0,0,1-.911-.557,3.821,3.821,0,0,0-.993-.71,1.427,1.427,0,0,0-1.37.213.4.4,0,1,1-.63.122.917.917,0,0,0-.545-.483,1.147,1.147,0,0,0-.718.053c-.031.012-.1.024-.132.039a2.275,2.275,0,0,1-.439-.4v0a1.144,1.144,0,0,1,.186-1.552,1.35,1.35,0,0,1,1.578-.45.842.842,0,0,1,.033,1.395.614.614,0,0,1-.716.11c-.234-.17-.332-.429-.151-.619h0a.634.634,0,0,1,.346-.215c.094-.021.158.02.2,0s0-.165-.2-.2a.664.664,0,0,0-.6.284.678.678,0,0,0-.062.107.6.6,0,0,0,.029.573.854.854,0,0,0,1.422.119,1.155,1.155,0,0,0,.148-1.577,2.108,2.108,0,0,0,.555-.056c0-.022.186-.021.276-.051a1.533,1.533,0,0,0-.1.455,1.813,1.813,0,0,0,.912,1.846,1.861,1.861,0,0,0,2.018-.619,1.584,1.584,0,0,0,.408-1.025,1.555,1.555,0,0,0-.414-1.018,1.01,1.01,0,0,0-1.059-.338.872.872,0,0,0-.688.951.6.6,0,0,0,.456.426c.163.02.255-.045.257-.079.03-.082-.451-.154-.425-.5a.459.459,0,0,1,.011-.085.7.7,0,0,1,.569-.513.842.842,0,0,1,.711.385,1.179,1.179,0,0,1-.053,1.607,1.6,1.6,0,0,1-1.624.539,1.523,1.523,0,0,1-.8-1.48l.007-.1c.023-.234.065-.445.087-.594a3.6,3.6,0,0,0,1.454-1.36,2.567,2.567,0,0,0,.341-1.715,2.653,2.653,0,0,0,.28-.309,1.32,1.32,0,0,1,1.04-.6,1.415,1.415,0,0,1,1.007.648.886.886,0,0,1-.233,1.079c-.125.136-.374.329-.441.281a.433.433,0,0,1-.35-.35h0c-.049-.2.09-.42.023-.473-.025-.061-.38.105-.3.549l.029.08a.8.8,0,0,0,.641.477,1.334,1.334,0,0,0,.878-1.79,1.7,1.7,0,0,0-1.191-.782,1.534,1.534,0,0,0-1.27.632l-.049.056a1.4,1.4,0,0,0-.123.182,2.906,2.906,0,0,0-.15-.444,1.311,1.311,0,0,0-.962-.9,1.511,1.511,0,0,0-1.265.413,1.1,1.1,0,0,0-.313,1.271,1.249,1.249,0,0,0,.45.525.687.687,0,0,0,.742-.019h0a.816.816,0,0,0,.373-.653c0-.21-.122-.3-.147-.276s0,.123-.054.27a.837.837,0,0,1-.377.449.345.345,0,0,1-.087.036c-.28.093-.581-.262-.682-.566a.891.891,0,0,1,.367-.892,1.179,1.179,0,0,1,.992-.264,1.043,1.043,0,0,1,.7.725,2.42,2.42,0,0,1-.083,2.159,3.125,3.125,0,0,1-1.7,1.433l-.115.032c-.305.076-.583.11-.767.143-.019-.012-.038-.022-.058-.032a1.592,1.592,0,0,0-1.864.479,2.223,2.223,0,0,0-.488.74.431.431,0,0,0-.173-.175.791.791,0,0,0-.718-.3,1.424,1.424,0,0,0-.712.293,1.126,1.126,0,0,0-.494.608,1.093,1.093,0,0,0,.109.788,1.155,1.155,0,0,0,1.347.671,1.036,1.036,0,0,0,.56-.591.528.528,0,0,0-.076-.461.538.538,0,0,0-.428-.239.4.4,0,0,0-.423.192c-.066.118-.011.2.017.2.083,0,.2-.175.443-.108a.334.334,0,0,1,.052.013c.355.1.04.648-.3.742-.355.107-.762-.2-.937-.56a.71.71,0,0,1,.282-1.007.839.839,0,0,1,1.087-.1l.046.042c.117.113.214.232.289.309a1.217,1.217,0,0,0,.242.8l.066.086a1.355,1.355,0,0,0,.451.348.757.757,0,0,0-.262.338.766.766,0,0,0,.113.726h0a.613.613,0,0,0,.757.226c.189-.1.22-.232.2-.251s-.133.048-.284.073a.547.547,0,0,1-.511-.352c-.134-.319.136-.611.5-.687a.628.628,0,0,1,.807.416,1.6,1.6,0,0,1-.725,1.917,1.757,1.757,0,0,1-2.1-.114,2.117,2.117,0,0,1-.512-1.012,1.667,1.667,0,0,0-.875-.953,1.39,1.39,0,0,0-.13-.053,1.587,1.587,0,0,0-.873-.042.932.932,0,0,0,.014-.359,1.2,1.2,0,0,0-.971-1,.611.611,0,0,0-.411.093.933.933,0,0,0-.264.279.542.542,0,0,0,.157.759v0c.362.178.6-.041.564-.089-.024-.082-.278-.047-.431-.167a.247.247,0,0,1-.032-.025c-.209-.176.133-.665.427-.56a.943.943,0,0,1,.676.756.955.955,0,0,1-.524.886.973.973,0,0,1-1.045.039l-.052-.032c-.124-.074-.238-.148-.326-.191a2.783,2.783,0,0,0-.942-1.433,2.566,2.566,0,0,0-.394-.254,1.133,1.133,0,0,0,.26-.158,2.12,2.12,0,0,0,.8-1.107,1,1,0,0,0-.059-.63,2.915,2.915,0,0,0,.26-.245v0a.9.9,0,0,1,1.013-.327c.342.163.635.536.482.866-.118.325-.593.575-.857.4a.612.612,0,0,1-.235-.446c-.009-.148.172-.216.275-.2a.6.6,0,0,1,.4.152c.032.008.111-.077.048-.21a.485.485,0,0,0-.409-.229.274.274,0,0,0-.078,0,.55.55,0,0,0-.383.167.5.5,0,0,0-.113.4.809.809,0,0,0,.391.631.966.966,0,0,0,1.23-.58.811.811,0,0,0-.072-.724,1.356,1.356,0,0,0-.523-.476,1.144,1.144,0,0,0-1.318.308l-.052.05a1.062,1.062,0,0,0-.179.236,1.645,1.645,0,0,0-.377-.406,1.286,1.286,0,0,0-.651-.32.791.791,0,0,0-.7.3.885.885,0,0,0-.2.719.519.519,0,0,0,.245.351.662.662,0,0,0,.385.1c.409-.027.487-.4.4-.4-.076-.026-.211.14-.424.114a.494.494,0,0,1-.05,0c-.372,0-.343-.481-.1-.727.24-.273.626-.172.92.1a1,1,0,0,1,.453.938,1.724,1.724,0,0,1-.641.926l-.05.039a2.1,2.1,0,0,0-.3.293,2.736,2.736,0,0,0-2.465.2v.342a2.435,2.435,0,0,1,3.006.124,2.547,2.547,0,0,1,.8,1.492,4.473,4.473,0,0,1,.015.882,1.348,1.348,0,0,0,.276.944h0a2.627,2.627,0,0,0,.849.621,1.478,1.478,0,0,0-.836.469l.4,0a1.51,1.51,0,0,1,1.51-.013l.506,0a1.667,1.667,0,0,0-.521-.32,2.216,2.216,0,0,0-.766-.155,4.68,4.68,0,0,1-.971-.845,1.081,1.081,0,0,1-.08-.139,6.475,6.475,0,0,1-.09-1.44.583.583,0,0,0,.073.051v0a1.284,1.284,0,0,0,1.388.018,1.375,1.375,0,0,0,.559-.667,3.1,3.1,0,0,1,.747.133,1.134,1.134,0,0,1,.874.751c.084.2.18.47.3.725-.043.055-.058.226-.095.226h0c-.181.6-.64,1.092-1.2.859a.545.545,0,0,1-.444-.528c.014-.243.251-.438.46-.332h0c.139.052.282.139.343.087s0-.255-.261-.36a.213.213,0,0,0-.061-.017.645.645,0,0,0-.773.652.847.847,0,0,0,.648.776.951.951,0,0,0,.3.061,1.7,1.7,0,0,0-.036.462l.288,0c-.018-.184-.034-.35-.057-.466a.941.941,0,0,0,.506-.217,1.954,1.954,0,0,0,.54-.8l.019-.048a.635.635,0,0,0,.02-.066,1.138,1.138,0,0,0,.132.148,2.032,2.032,0,0,0,2.524.2,1.808,1.808,0,0,0,.88-1.618c.108-.08.3-.366.576-.627h0a1.179,1.179,0,0,1,1.06-.229,3.153,3.153,0,0,1,.982.647,4.593,4.593,0,0,0,.607.483,4.087,4.087,0,0,0-.11,1.026c-.062.082-.13.314-.208.415h0a1.186,1.186,0,0,1-.848.868,1.225,1.225,0,0,1-1.125-.332.706.706,0,0,1,.212-.988c.3-.245.811.151.943.352.068.1-.134.313-.088.371.018.033.1.025.207-.047a.412.412,0,0,0,.145-.5l-.043-.086a1.194,1.194,0,0,0-.611-.458.838.838,0,0,0-.768.142,1.01,1.01,0,0,0-.221,1.389,1.228,1.228,0,0,0,.64.39l.026.008.865-.007a1.69,1.69,0,0,0,.9-.919l.017-.032a5.719,5.719,0,0,0,.169.945l.294,0a4.553,4.553,0,0,1-.165-.871" transform="translate(-517.112 -448.986)" fill="#ffafd2"/><path d="M543.909,455.049a.647.647,0,0,0-.081.793.84.84,0,0,0,.23.291.414.414,0,0,0,.427.054c.418-.211.395-.5.337-.518-.07-.046-.218.2-.4.265l-.023.008c-.105.025-.277-.165-.349-.3a.4.4,0,0,1,.121-.446.848.848,0,0,1,.736-.263v-.288a1.037,1.037,0,0,0-.994.408" transform="translate(-522.477 -448.193)" fill="#ffafd2"/></g><rect width="22.379" height="0.449" fill="url(#i)"/></g><g transform="translate(4.054 13.751)" opacity="0"><circle cx="0.73" cy="0.73" r="0.73" transform="translate(0 0)" fill="#444"/><circle cx="0.73" cy="0.73" r="0.73" transform="translate(12.555 0)" fill="#444"/><path d="M508.5,377.505s.345,8.221,6.476,8.177c5.456-.039,6.016-6.49,6.074-7.923.007-.161.006-.26.006-.26" transform="translate(-507.77 -376.04)" fill="none" stroke="#000" stroke-linecap="round" stroke-miterlimit="10" stroke-width="1.1" stroke-dasharray="0.5" opacity="0.46"/><path d="M508.5,377.505s.345,8.221,6.476,8.177c5.456-.039,6.016-6.49,6.074-7.923.007-.161.006-.26.006-.26" transform="translate(-507.77 -376.606)" fill="none" stroke="#fff" stroke-linecap="round" stroke-miterlimit="10" stroke-width="1.1" stroke-dasharray="0.7"/></g><g transform="translate(5.201 14.278)"><path d="M628.527,385v2.317a4.954,4.954,0,0,1-.216,1.493,6.126,6.126,0,0,1-11.278.91,5.08,5.08,0,0,1-.534-2.313V385" transform="translate(-616.5 -385)" fill="none" stroke="#000" stroke-linecap="round" stroke-linejoin="round" stroke-miterlimit="10" stroke-width="1.1" stroke-dasharray="0.5 0.5" opacity="0.59"/></g><g transform="translate(4.261 13.751)"><circle cx="1" cy="1" r="1" transform="translate(-0.204 -0.247)" fill="#1c1c1c"/><circle cx="1" cy="1" r="1" transform="translate(11.848 -0.247)" fill="#1c1c1c"/><path d="M628.594,386.164v1.353a5.276,5.276,0,0,1-.217,1.546,6.094,6.094,0,0,1-11.34.942,5.391,5.391,0,0,1-.537-2.4V386" transform="translate(-615.724 -385.335)" fill="none" stroke="#fff" stroke-linecap="round" stroke-linejoin="round" stroke-miterlimit="10" stroke-width="1.1" stroke-dasharray="0.5 0.5"/></g></g></g></g></g></svg>